<?xml version="1.0" encoding="utf-8"?>
<!-- Generator: Adobe Illustrator 23.1.0, SVG Export Plug-In . SVG Version: 6.00 Build 0)  -->
<svg version="1.1" id="Layer_1" xmlns="http://www.w3.org/2000/svg" xmlns:xlink="http://www.w3.org/1999/xlink" x="0px" y="0px"
	 viewBox="0 0 796.7 800.7" style="enable-background:new 0 0 796.7 800.7;" xml:space="preserve">
<style type="text/css">
	.st0{fill:#FFFFFF;}
</style>
<path class="st0" d="M391,18.3c-211.5,0-383,171.5-383,383s171.5,383,383,383s383-171.5,383-383S602.5,18.3,391,18.3z M391,728.3
	c-180.6,0-327-146.4-327-327s146.4-327,327-327s327,146.4,327,327S571.6,728.3,391,728.3z"/>
<g>
	<path class="st0" d="M493.5,211.3c-6.8,0-12.7,0-18.7,0c0.4-14.1,1.4-15.1,14.4-15.1c26.4,0,52.8-0.1,79.1,0
		c41.9,0.2,60.8,22.3,54.5,63.6c-5,33.2-18.3,61.5-49.4,78.1c-8.6,4.6-18.4,7.1-28.5,10.9c3.3,1.6,6.4,2.9,9.3,4.4
		c22.4,11.4,31.5,31,27.2,62.8c-4.4,32.2-16,61.3-42.5,82.4c-13,10.3-27.9,16.4-44.3,16.7c-38.5,0.7-77,0.4-115.5,0.5
		c-1,0-2-0.6-3.3-1c-0.1-9.7,2.9-15.7,14.1-14.3c5.6,0.7,9.9,0,12.1-7c30-92.5,60.4-184.8,90.6-277.2
		C493,215.1,493.1,214,493.5,211.3z M448.5,500.3c8.9,0,15.6,0.1,22.3,0c22.5-0.2,33-6.5,40.5-27.6c9.2-25.8,18-51.8,24.9-78.2
		c7.7-29.9,0.8-37.5-29.7-37.5c-1.4,0-2.9,0.2-4.3,0c-6.2-1.1-8.7,2.2-10.4,7.7c-7.7,24.8-15.7,49.5-23.7,74.2
		C461.8,458.7,455.4,478.7,448.5,500.3z M500.3,340.8c37.3,3.4,45.6-1.1,57.8-34.3c7.6-20.6,14.1-41.7,19.5-63
		c7.2-28.4,3.4-32.1-25.9-32.4c-7.7-0.1-10.5,2.9-12.5,9.6c-5.4,17.6-11.4,35.1-17,52.7C514.9,295.6,507.7,317.9,500.3,340.8z"/>
	<path class="st0" d="M375.7,559.5c-2.3,10.8-7.5,14.7-18.1,14.4c-27.4-0.8-54.9-0.4-82.3-0.6c-3.4,0-6.8-0.3-10.7-0.5
		c2.5-10.5,7.4-16.2,18-14.3c9.4,1.7,13.9-2.3,16.7-11.5c6.2-20.3,13.6-40.3,21.1-62.1c-20.3,0-39-0.2-57.8,0.2
		c-2.6,0.1-5.9,2.4-7.8,4.6c-15.7,18-31.2,36.1-46.5,54.4c-2.7,3.3-4.1,7.6-7,13.1c8.6,0.8,14.9,1.3,22,2
		c-2.3,9.2-5.8,14.6-16.4,14.1c-16.6-0.8-33.3-0.2-51-0.2c2.7-8.6,5.6-13.5,14.2-16.5c8.7-3,17.2-9.2,23.4-16.1
		c33.9-37.6,67.3-75.5,100.3-113.8c46.2-53.8,91.9-107.9,137.6-162.1c5.1-6,10.4-7.9,19.1-5.3c-32.6,99.5-65.2,198.6-98.1,299.1
		C360.9,558.8,368.1,559.2,375.7,559.5z M271.8,470.1c16.9,0,31-0.3,45,0.1c6.6,0.2,9.3-2.4,11.2-8.4c5.7-17.9,12.2-35.6,18.2-53.4
		c4.4-13,8.8-26.1,13.1-39.2c-0.6-0.3-1.2-0.5-1.8-0.8C329.7,401.6,301.8,434.6,271.8,470.1z"/>
</g>
</svg>
