<?xml version="1.0" encoding="utf-8"?>
<!-- Generator: Adobe Illustrator 23.1.0, SVG Export Plug-In . SVG Version: 6.00 Build 0)  -->
<svg version="1.1" id="Layer_1" xmlns="http://www.w3.org/2000/svg" xmlns:xlink="http://www.w3.org/1999/xlink" x="0px" y="0px"
	 viewBox="0 0 650 657" style="enable-background:new 0 0 650 657;" xml:space="preserve">
<g>
	<path d="M51.6,25.2c183,0,363.7,0,546.8,0c-7.6,69-15.1,136.1-22.5,203.3c-12.5,112.6-24.6,225.3-37.8,337.9
		c-5.5,46.7-26.6,64.8-74,65.1c-93,0.5-185.9,0.5-278.9,0c-47.3-0.3-68.2-18.2-73.6-65.5C92.9,403.6,75.2,241.1,57.2,78.6
		C55.3,61.3,53.6,44,51.6,25.2z M119.2,85.3c3.6,32.7,8.6,63,9.6,93.3c0.7,21.4,9,25.8,28.8,25.7c112.4-0.9,224.8-0.4,337.2-0.5
		c7.1,0,14.2-1.3,22.8-2.2c4.2-39,8.2-76.5,12.5-116.3C393.2,85.3,258.1,85.3,119.2,85.3z"/>
</g>
</svg>
