<?xml version="1.0" encoding="utf-8"?>
<!-- Generator: Adobe Illustrator 23.1.0, SVG Export Plug-In . SVG Version: 6.00 Build 0)  -->
<svg version="1.1" id="Layer_1" xmlns="http://www.w3.org/2000/svg" xmlns:xlink="http://www.w3.org/1999/xlink" x="0px" y="0px"
	 viewBox="0 0 650 657" style="enable-background:new 0 0 650 657;" xml:space="preserve">
<g>
	<path d="M124.1,565c-15.2-15.2-27.5-27.6-44.7-45c5.7-3.5,13.2-6.3,18.3-11.4c81.2-80.7,162-161.8,243.4-242.4
		c8.7-8.6,10.8-15.5,7.9-27.9c-12.8-53.5,8.4-97,45.4-133.7c21.9-21.7,48.6-36.3,79.5-42.4c75-14.9,128.5,41.2,109.7,115.5
		c-20.5,81-107.5,143-182.7,118.8c-4-1.3-10.7,0.7-14.2,3.6c-12,9.8-23.1,20.8-36.1,32.6C416,398,479.3,460.9,544,525.1
		c-14.1,12.9-26.9,24.7-41.8,38.3c-61.7-62.6-124.3-126-189.1-191.8C248.4,437.8,186.1,501.6,124.1,565z"/>
	<path d="M202.2,343.8c-38.2-39-75.8-77.8-114-116c-20.7-20.7-32-45.2-33.2-74c-1.3-31.8,8.4-59.8,30.9-81.7
		c64.9,65.2,129.2,129.7,191.7,192.5C254.3,289.1,229.7,315,202.2,343.8z"/>
</g>
</svg>
