<svg width="128" height="128" xmlns="http://www.w3.org/2000/svg">

 <g>
  <title>background</title>
  <rect fill="none" id="canvas_background" height="402" width="582" y="-1" x="-1"/>
 </g>
 <g>
  <title>Layer 1</title>
  <rect id="svg_1" width="128" height="128" fill-rule="evenodd" fill="none" clip-rule="evenodd"/>
  <path id="Instagram" fill-rule="evenodd" fill="#ffffff" d="m105.843,29.837c0,4.242 -3.439,7.68 -7.68,7.68c-4.241,0 -7.68,-3.438 -7.68,-7.68c0,-4.242 3.439,-7.68 7.68,-7.68c4.242,0 7.68,3.438 7.68,7.68zm-41.843,55.496c-11.782,0 -21.333,-9.551 -21.333,-21.333c0,-11.782 9.551,-21.333 21.333,-21.333c11.782,0 21.333,9.551 21.333,21.333c0,11.782 -9.551,21.333 -21.333,21.333zm0,-54.198c-18.151,0 -32.865,14.714 -32.865,32.865c0,18.151 14.714,32.865 32.865,32.865c18.151,0 32.865,-14.714 32.865,-32.865c0,-18.151 -14.714,-32.865 -32.865,-32.865zm0,-19.603c17.089,0 19.113,0.065 25.861,0.373c6.24,0.285 9.629,1.327 11.884,2.204c2.987,1.161 5.119,2.548 7.359,4.788c2.24,2.239 3.627,4.371 4.788,7.359c0.876,2.255 1.919,5.644 2.204,11.884c0.308,6.749 0.373,8.773 0.373,25.862c0,17.089 -0.065,19.113 -0.373,25.861c-0.285,6.24 -1.327,9.629 -2.204,11.884c-1.161,2.987 -2.548,5.119 -4.788,7.359c-2.239,2.24 -4.371,3.627 -7.359,4.788c-2.255,0.876 -5.644,1.919 -11.884,2.204c-6.748,0.308 -8.772,0.373 -25.861,0.373c-17.09,0 -19.114,-0.065 -25.862,-0.373c-6.24,-0.285 -9.629,-1.327 -11.884,-2.204c-2.987,-1.161 -5.119,-2.548 -7.359,-4.788c-2.239,-2.239 -3.627,-4.371 -4.788,-7.359c-0.876,-2.255 -1.919,-5.644 -2.204,-11.884c-0.308,-6.749 -0.373,-8.773 -0.373,-25.861c0,-17.089 0.065,-19.113 0.373,-25.862c0.285,-6.24 1.327,-9.629 2.204,-11.884c1.161,-2.987 2.548,-5.119 4.788,-7.359c2.239,-2.24 4.371,-3.627 7.359,-4.788c2.255,-0.876 5.644,-1.919 11.884,-2.204c6.749,-0.308 8.773,-0.373 25.862,-0.373zm0,-11.532c-17.381,0 -19.561,0.074 -26.387,0.385c-6.812,0.311 -11.465,1.393 -15.535,2.975c-4.209,1.635 -7.778,3.824 -11.336,7.382c-3.558,3.558 -5.747,7.127 -7.382,11.336c-1.582,4.071 -2.664,8.723 -2.975,15.535c-0.311,6.826 -0.385,9.006 -0.385,26.387c0,17.381 0.074,19.561 0.385,26.387c0.311,6.812 1.393,11.464 2.975,15.535c1.635,4.209 3.824,7.778 7.382,11.336c3.558,3.558 7.127,5.746 11.336,7.382c4.071,1.582 8.723,2.664 15.535,2.975c6.826,0.311 9.006,0.385 26.387,0.385c17.381,0 19.561,-0.074 26.387,-0.385c6.812,-0.311 11.464,-1.393 15.535,-2.975c4.209,-1.636 7.778,-3.824 11.336,-7.382c3.558,-3.558 5.746,-7.127 7.382,-11.336c1.582,-4.071 2.664,-8.723 2.975,-15.535c0.311,-6.826 0.385,-9.006 0.385,-26.387c0,-17.381 -0.074,-19.561 -0.385,-26.387c-0.311,-6.812 -1.393,-11.464 -2.975,-15.535c-1.636,-4.209 -3.824,-7.778 -7.382,-11.336c-3.558,-3.558 -7.127,-5.746 -11.336,-7.382c-4.071,-1.582 -8.723,-2.664 -15.535,-2.975c-6.826,-0.311 -9.006,-0.385 -26.387,-0.385z" clip-rule="evenodd"/>
 </g>
</svg>