<svg id="Layer_1" data-name="Layer 1" xmlns="http://www.w3.org/2000/svg" viewBox="0 0 304.24 125"><defs><style>.cls-1{fill:#fff;}</style></defs><title>liveurope</title><path class="cls-1" d="M128.33 38.18a7.54 7.54 0 1 1-7.54-7.53 7.53 7.53 0 0 1 7.54 7.53zM104.71 11.7a7 7 0 1 1-9.57-2.56 7 7 0 0 1 9.57 2.56zM71.14.86a6.38 6.38 0 1 1-8.72 2.33A6.37 6.37 0 0 1 71.14.86zM37 8.11a5.95 5.95 0 1 1-6 5.94 5.95 5.95 0 0 1 6-5.94zM11.17 31.35a5.58 5.58 0 1 1-2 7.62 5.59 5.59 0 0 1 2-7.62zM.69 64.27a5.12 5.12 0 1 1 1.87 7 5.12 5.12 0 0 1-1.87-7zm7.44 33.51a4.68 4.68 0 1 1 4.68 4.67 4.67 4.67 0 0 1-4.68-4.67zm23.15 25.09a4.25 4.25 0 1 1 5.81 1.55 4.24 4.24 0 0 1-5.81-1.55zM47.2 83.29v-40.4h8.92v40.4zm16.44 0V62.51h9v20.78zm4.53-25.49a5.6 5.6 0 1 1 0-11.2 5.6 5.6 0 1 1 0 11.2zM97.6 83.35h-9.31L77.13 62.51H87l4 8.42a48.08 48.08 0 0 1 2.33 7.42 44.11 44.11 0 0 1 2.2-7.42l3.86-8.42h9.12zm21.54-4c.57 1.91 3.59 4 3.59 4h-11.17s-1.6-4.27-1.6-6.8c0-8.55 6.85-14.65 15.63-14.65 10.18 0 15.7 7.56 15 17.43h-21.45zm-.14-5.18h12.57c-.4-3.11-2.4-5-5.92-5s-5.91 1.62-6.65 5zm40.44 15.61c-6.05 0-10.11-4-10.11-10.6v-17h2.6v16.6c0 5.5 2.59 8.61 7.78 8.61 5.85 0 10-3.91 10-10.14v-15.1h2.6v27h-2.6l.07-6a10.86 10.86 0 0 1-10.31 6.56zm24.56-.59v-27h2.6l-.07 5.43c1.53-3.91 4.46-6 7.92-6a7.62 7.62 0 0 1 4.9 1.38l-1.26 2.12a6.35 6.35 0 0 0-4-1.13c-3.86 0-7.52 3.25-7.52 9.81v15.39H184zm34.4.53a14.08 14.08 0 1 1 0-28.17 14.08 14.08 0 0 1 0 28.17zm0-2.32c6.79 0 11.38-5.1 11.38-11.8s-4.59-11.73-11.38-11.73-11.51 5-11.51 11.73 4.71 11.8 11.49 11.8zm23.69 15.84V62.15h2.6l-.13 6.63a12.57 12.57 0 0 1 11.64-7.22c7.79 0 13.44 6.1 13.44 14.05S264 89.72 256.17 89.72a12.82 12.82 0 0 1-11.51-7.09v20.61h-2.59zm13.75-15.84c6.72 0 11-5.1 11-11.8s-4.32-11.73-11-11.73-11.38 5-11.38 11.73 4.54 11.8 11.38 11.8zM280 76.2c.2 6.56 4.52 11.2 11.51 11.2a11.59 11.59 0 0 0 9.49-4.24l1.73 1.52a13.94 13.94 0 0 1-11.24 5c-8.58 0-14.17-6.3-14.17-14.05a13.79 13.79 0 0 1 13.64-14.11c8.25 0 13.44 6.43 13.31 14.65H280zm.07-2.12h21.56c-.4-5.57-3.86-10.27-10.64-10.27-6.19 0-10.25 4.37-10.91 10.27zM160.65 32.59a5.52 5.52 0 0 1-.43 2.14 5.6 5.6 0 0 1-1.17 1.78 5.8 5.8 0 0 1-1.75 1.22 5.14 5.14 0 0 1-2.16.46 7.78 7.78 0 0 1-2-.27 4.85 4.85 0 0 1-1.84-.92 5 5 0 0 1-1.3-1.75 6.34 6.34 0 0 1-.53-2.76V19.16a5.9 5.9 0 0 1 .41-2.21 5.19 5.19 0 0 1 1.12-1.76 5.37 5.37 0 0 1 1.78-1.19 6 6 0 0 1 2.29-.42 5.7 5.7 0 0 1 2.21.42 5.28 5.28 0 0 1 1.77 1.19 5.46 5.46 0 0 1 1.17 1.81 6.26 6.26 0 0 1 .43 2.33v1.36h-3.47v-1.12a2.81 2.81 0 0 0-.58-1.77 1.87 1.87 0 0 0-1.56-.75 1.76 1.76 0 0 0-1.72.8 4.29 4.29 0 0 0-.42 2v12.4a3.2 3.2 0 0 0 .46 1.77 1.81 1.81 0 0 0 1.65.71 2.49 2.49 0 0 0 .73-.12 2 2 0 0 0 .71-.39 2 2 0 0 0 .53-.75 3 3 0 0 0 .2-1.19V31.1h3.47v1.5zm2.64-6.05a12.73 12.73 0 0 1 .14-1.94 4.57 4.57 0 0 1 2.28-3.37 5.92 5.92 0 0 1 5.51 0 4.57 4.57 0 0 1 2.28 3.37 12.88 12.88 0 0 1 .14 1.94v5.68a12.73 12.73 0 0 1-.14 1.94 4.57 4.57 0 0 1-2.28 3.37 5.92 5.92 0 0 1-5.51 0 4.57 4.57 0 0 1-2.28-3.37 12.88 12.88 0 0 1-.14-1.94zm3.47 6.22a2.1 2.1 0 0 0 .46 1.48 1.81 1.81 0 0 0 2.48 0 2.1 2.1 0 0 0 .46-1.48V26a2.1 2.1 0 0 0-.46-1.48 1.81 1.81 0 0 0-2.48 0 2.09 2.09 0 0 0-.46 1.48v6.77zm9.44-6.22a12.73 12.73 0 0 1 .14-1.94 4.57 4.57 0 0 1 2.28-3.37 5.92 5.92 0 0 1 5.51 0 4.57 4.57 0 0 1 2.28 3.37 12.88 12.88 0 0 1 .14 1.94v5.68a12.73 12.73 0 0 1-.14 1.94 4.57 4.57 0 0 1-2.28 3.37 5.92 5.92 0 0 1-5.51 0 4.57 4.57 0 0 1-2.28-3.37 12.88 12.88 0 0 1-.14-1.94zm3.47 6.22a2.1 2.1 0 0 0 .46 1.48 1.81 1.81 0 0 0 2.48 0 2.1 2.1 0 0 0 .46-1.48V26a2.1 2.1 0 0 0-.46-1.48 1.81 1.81 0 0 0-2.48 0 2.09 2.09 0 0 0-.46 1.48v6.77zm9.75-12h3.47v1.84a10.53 10.53 0 0 1 2.11-1.5 5.29 5.29 0 0 1 2.52-.54v3.67a2.81 2.81 0 0 0-1.05-.2 4.12 4.12 0 0 0-1.17.19 3.19 3.19 0 0 0-1.16.63 3.38 3.38 0 0 0-.87 1.15 4.09 4.09 0 0 0-.34 1.77V38h-3.47V20.76zm13.25 11.63a3.14 3.14 0 0 0 .41 1.7 1.42 1.42 0 0 0 1.29.65 1.53 1.53 0 0 0 1.26-.6 2.4 2.4 0 0 0 .48-1.55V25.9a1.89 1.89 0 0 0-.49-1.34 1.63 1.63 0 0 0-1.24-.53 1.42 1.42 0 0 0-1.34.61 2.78 2.78 0 0 0-.36 1.43v6.32zm3.43 4l-.65.7a3.55 3.55 0 0 1-.68.56 3.21 3.21 0 0 1-.85.38 4.13 4.13 0 0 1-1.12.14 3.15 3.15 0 0 1-3-1.63 4.63 4.63 0 0 1-.44-1.43 15.18 15.18 0 0 1-.14-2.28V26.3a26.57 26.57 0 0 1 .1-2.75 3.42 3.42 0 0 1 .44-1.43 3.71 3.71 0 0 1 1.12-1.12 3.64 3.64 0 0 1 2-.44 3.58 3.58 0 0 1 1.82.46 4.18 4.18 0 0 1 1.3 1.31h.07v-8.54h3.47V38h-3.44zm6.65-15.67h3.47V38h-3.47zm0-7h3.47v3.47h-3.47zm6.65 7h3.47v1.67h.07a4.93 4.93 0 0 1 1.31-1.34 3.38 3.38 0 0 1 2-.53 4 4 0 0 1 1.29.22 3 3 0 0 1 1.16.73 3.68 3.68 0 0 1 .82 1.31 5.48 5.48 0 0 1 .31 2V38h-3.47V26.07a2.31 2.31 0 0 0-.44-1.5 1.53 1.53 0 0 0-1.26-.54 1.46 1.46 0 0 0-1.36.61 3.41 3.41 0 0 0-.37 1.77V38h-3.47zm20.12 15.47h-.07a6.37 6.37 0 0 1-1.38 1.46 3.26 3.26 0 0 1-2 .51 4.5 4.5 0 0 1-1.26-.19 3.14 3.14 0 0 1-1.21-.68 3.57 3.57 0 0 1-.92-1.39 6.41 6.41 0 0 1-.36-2.33 12.33 12.33 0 0 1 .24-2.57 4.08 4.08 0 0 1 .87-1.84 3.75 3.75 0 0 1 1.68-1.09 8.51 8.51 0 0 1 2.69-.36h.75l.92.07v-1.8a2.64 2.64 0 0 0-.37-1.46 1.5 1.5 0 0 0-1.3-.52 2 2 0 0 0-1.24.44 2.09 2.09 0 0 0-.73 1.29h-3.37A5.67 5.67 0 0 1 234 22a4.91 4.91 0 0 1 1.65-1 5.57 5.57 0 0 1 2.14-.39 6 6 0 0 1 2 .34 4.51 4.51 0 0 1 1.65 1 4.86 4.86 0 0 1 1.1 1.7A6.38 6.38 0 0 1 243 26v12h-3.47v-1.77zm0-5.64a5.69 5.69 0 0 0-1-.1 3.41 3.41 0 0 0-1.92.53 2.13 2.13 0 0 0-.8 1.92 2.55 2.55 0 0 0 .48 1.6 1.59 1.59 0 0 0 1.33.61 1.71 1.71 0 0 0 1.38-.58 2.43 2.43 0 0 0 .49-1.63zm6.35-15.06h3.47v5.24h2.14v2.72h-2.14V33a3 3 0 0 0 .12 1 1 1 0 0 0 .37.51 1.4 1.4 0 0 0 .66.2h1V38h-1.43a4.7 4.7 0 0 1-2-.37 3.6 3.6 0 0 1-1.27-1 3.74 3.74 0 0 1-.7-1.31 4.87 4.87 0 0 1-.22-1.41V23.48h-1.74v-2.72h1.73v-5.23zm7 11a12.73 12.73 0 0 1 .13-1.89 4.57 4.57 0 0 1 2.28-3.37 5.92 5.92 0 0 1 5.51 0A4.57 4.57 0 0 1 263 24.6a12.88 12.88 0 0 1 .14 1.94v5.68a12.73 12.73 0 0 1-.14 1.94 4.57 4.57 0 0 1-2.28 3.37 5.92 5.92 0 0 1-5.51 0 4.57 4.57 0 0 1-2.21-3.37 12.88 12.88 0 0 1-.14-1.94v-5.68zm3.47 6.22a2.1 2.1 0 0 0 .46 1.48 1.81 1.81 0 0 0 2.48 0 2.1 2.1 0 0 0 .46-1.48V26a2.1 2.1 0 0 0-.46-1.48 1.81 1.81 0 0 0-2.48 0 2.09 2.09 0 0 0-.5 1.48v6.77zm9.75-12h3.47v1.89a10.53 10.53 0 0 1 2.07-1.5 5.29 5.29 0 0 1 2.52-.54v3.67a2.81 2.81 0 0 0-1.05-.2 4.12 4.12 0 0 0-1.17.19 3.2 3.2 0 0 0-1.15.63 3.39 3.39 0 0 0-.87 1.15 4.09 4.09 0 0 0-.34 1.77V38h-3.47V20.76zm16.13 5.78a12.73 12.73 0 0 1 .14-1.94 4.57 4.57 0 0 1 2.28-3.37 5.92 5.92 0 0 1 5.51 0 4.57 4.57 0 0 1 2.28 3.37 12.88 12.88 0 0 1 .14 1.94v5.68a12.73 12.73 0 0 1-.14 1.94 4.57 4.57 0 0 1-2.28 3.37 5.92 5.92 0 0 1-5.51 0 4.57 4.57 0 0 1-2.28-3.37 12.88 12.88 0 0 1-.14-1.94zm3.47 6.22a2.1 2.1 0 0 0 .46 1.48 1.81 1.81 0 0 0 2.48 0 2.1 2.1 0 0 0 .46-1.48V26a2.1 2.1 0 0 0-.46-1.48 1.81 1.81 0 0 0-2.48 0 2.09 2.09 0 0 0-.46 1.48v6.77zm10.19-9.28h-1.7v-2.67h1.7v-2.34a5.36 5.36 0 0 1 .37-2.12 4 4 0 0 1 1-1.43 3.91 3.91 0 0 1 1.43-.82 5.39 5.39 0 0 1 1.65-.25h1.6v3.26h-1.56q-1 0-1 1.19v2.52h2.58v2.72h-2.58V38h-3.47z"/></svg>