<?xml version="1.0" encoding="utf-8"?>
<!-- Generator: Adobe Illustrator 23.1.0, SVG Export Plug-In . SVG Version: 6.00 Build 0)  -->
<svg version="1.1" id="Layer_1" xmlns="http://www.w3.org/2000/svg" xmlns:xlink="http://www.w3.org/1999/xlink" x="0px" y="0px"
	 viewBox="0 0 650 657" style="enable-background:new 0 0 650 657;" xml:space="preserve">
<g>
	<path d="M324.1,0c11.8,0,21.6,10.3,28.8,17.5c95.3,94.4,190.2,189.2,284.8,284.2c17.8,17.9,16.1,36.4-4.2,56.9
		c-63.3,63.5-126.8,126.8-190.3,190.2c-28.7,28.7-57.3,57.4-86.1,85.9c-24.2,23.9-40,24.2-63.6,0.7
		c-92.2-91.9-184.4-184-276.4-276.1c-22.5-22.6-22.8-39.7-0.7-61.9C109,204.7,201.6,112.1,294.7,19.8C302.5,12.1,313,0,324.1,0z
		 M194.5,424.4c23.5,0,43.9,0,66.1,0c0-32.7,0-63.6,0-94.6c44,0,86.2,0,131.1,0c0,25.9,0,50.1,0,69.8
		c35.6-34.9,72.1-70.6,104.5-102.4c-34.7-35-70.4-71.1-106.9-107.9c0,23.4,0,47.8,0,73.2c-54,0-105.3-0.3-156.6,0.1
		c-23.9,0.2-37.4,11-37.9,32.1C193.8,337.4,194.5,380.2,194.5,424.4z"/>
</g>
</svg>
